<svg width="4096" height="1851" viewBox="0 0 4096 1851" fill="none" xmlns="http://www.w3.org/2000/svg">
<g clip-path="url(#clip0_30_2)">
<path d="M3827.32 1358.54H3814.78L3775.59 1357.97L3667.62 1219.24L3634.24 1222.16L3533.06 1154.37L3478.78 1156.97L3339.85 1019.29L3362.98 960.17L3292.3 872.948L3224.04 862.096L3219.14 836.909L3185.18 825.652L3127.37 701.663L3086.74 585.934L3074.2 514.909L3000.98 476.441L2987 460.244L2947.1 413.029L2813.26 569.494L2721.09 619.3L2625.14 759.244L2681.05 869.304L2862.18 1017.26L2877.47 1053.71L2925.47 1082.13L2967.74 1174.3L3043.18 1217.06L3139.26 1328.17L2993.93 1247.83L3000.85 1272.13L3022.01 1325.34L2973.48 1284.84L2924.89 1272.29L2998.37 1419.04L2878.05 1297.56L2821.1 1201.91L2783.47 1171.06L2781.64 1203.45L2606.85 1000.34L2550.29 985.518L2487.06 934.254L2426.64 824.599L2361 750.335L2323.63 753.737L2238.72 687.328L2281.11 773.983L2202.21 715.997L2216.32 765.48L2101.68 700.691L2108.21 649.427L2089.86 603.751L2076.8 609.015L2094.89 545.765L2074.97 566.902L2070.85 521.55L2042.18 511.022L2065.17 503.571L2062.62 415.215L1966.61 344.515L1958.9 402.339L1929.83 442.103L1939.83 351.803L1960.2 315.117L1938.78 297.867L1916.9 324.754L1860.33 238.504L1903.51 106.821L1886.26 116.377L1888.62 47.2153L1865.1 69.8104L1828.72 145.775L1718.14 301.673L1630.09 367.272L1572.8 497.983L1564.51 517.096L1473.91 674.613L1341.71 787.265L1281.88 872.786L1376.33 959.927L1527.47 887.039L1637.21 975.395L2015.66 1269.46L2203.45 1375.63L2310.37 1373.12L2679.94 1676.09L2803.26 1777.16L2837.82 1762.34L2864.73 1788.41L2942.46 1818.22L3014.31 1862.03L3144.29 1744.6L3190.01 1639.32L3302.82 1815.54L3336.19 1799.35L3369.57 1845.83L3446.84 1780.4L3486.03 1707.51L3513.14 1710.5L3538.42 1679.32L3573.63 1692.2L3644.43 1804.61L3720.2 1854.74L3757.04 1909.41L3784.41 1850.69L3807.33 1872.88L3849.27 1876.04L3873.17 1909.73L3887.54 1912.4L3890.03 1892.48L3911.58 1927.06L3926.74 1921.15L4338.89 1757.4L3827.32 1358.54ZM3012.41 900.969L3032.66 841.201L3053.89 809.779L3082.11 816.015L3012.41 900.969ZM1921.21 638.98L1892.4 583.099L1862.68 550.219L1849.62 573.705L1855.83 634.444L1803.25 585.853L1768.37 666.839L1765.16 635.254L1793.64 568.279L1794.04 528.596L1749.1 460.082L1756.41 399.99L1799.91 311.472L1860.59 376.261L1863.01 414.81L1893.91 454.413L1901.16 522.765L1933.03 579.455L1921.21 638.98ZM2200.57 966.973L2123.63 923.969L2086.33 896.758L2057.2 903.075L2008.74 858.451L1976.08 845.575L1973.07 824.518L1958.38 803.138L2000.57 715.835L2000.18 642.948L2040.41 598.325L2019.32 655.987L2034.67 683.036L2065.95 765.804L2086.86 774.631L2155.18 854.807L2159.88 883.962L2216.25 946.24L2291.56 1027.23L2200.57 966.973ZM3294.06 984.142L3324.37 950.856L3293.87 1020.42L3294.06 984.142ZM3310.98 1424.38L3288.97 1410.78L3263.63 1362.91L3223.06 1354.81L3236.72 1398.63L3209.87 1387.05L3173.81 1407.13L3202.23 1370.12L3196.61 1337.16L3272.71 1306.22L3387.21 1495.57L3310.98 1424.38ZM3561.02 1614.29L3509.55 1579.23L3559.39 1598.5L3489.3 1522.05L3586.3 1581.74L3651.62 1666.37L3561.02 1614.29Z" fill="#373D52"/>
<path d="M3911.91 1926.74L3570.03 2062.31L3355.07 2099.97L3035.01 2179.09L2638.92 2306.56L2252.83 2216.83L2119.52 2283.8L2034.6 2195.37L1506.9 2419.37L828.112 2069.43L494.99 2161.84L365.138 2098.35L252.986 2134.71L152.397 2073.24L1.83848 2119.32L-98.2941 2063.44L-210.119 2088.79C-210.119 2088.79 -389.155 2069.6 -386.02 2066.92C-347.221 2049.11 -308.03 2031.88 -268.448 2015.25L-234.613 1938.24L-22.9824 1790.6L98.2479 1587.32L293.288 1343.31L389.958 1344.85L450.378 1305.25L686.764 1025.69H742.676L988.533 767.504L1004.67 1194.22L1086.77 1522.54L1255.36 1668.96L1219.5 1391.34L1137.33 1313.03L1030.34 1120.52L1191.41 1267.03L1079.98 1014.67L1171.42 1105.7L1128.71 994.103L1066.52 893.437L1109.63 923.969L1136.81 907.286L1155.62 915.384L1185.66 896.758L1251.31 856.265L1278.35 995.155L1315.97 1032.49L1376.2 959.603L1527.34 886.715C1525.71 890.522 1525.25 1048.69 1525.25 1048.69L1714.15 1293.51L1738.12 1439.28V1441.14L1702.13 1573.23L1867.45 1695.6L1861.51 1557.93L1819.84 1517.43L1749.88 1379.51L1851.12 1474.84L1752.69 1201.59L1742.43 1123.19L1936.95 1330.68L2029.96 1433.45L2209.59 1571.13L2156.75 1424.54L2249.89 1417.33L2299.99 1431.26L2526.05 1640.53L2466.88 1530.63L2679.94 1675.44L2803.26 1776.51L2837.82 1761.69L2864.73 1787.76L2942.46 1817.57L3014.31 1861.38L3144.29 1743.95L3190.01 1638.67L3302.82 1814.9L3336.19 1798.7L3369.57 1845.18L3446.84 1779.75L3486.03 1706.86L3513.14 1709.86L3538.42 1678.68L3573.63 1691.55L3644.43 1803.96L3720.2 1854.09L3757.04 1908.76L3784.41 1850.04L3807.33 1872.23L3849.27 1875.39L3873.17 1909.08L3887.54 1911.75L3890.03 1891.83L3911.91 1926.74Z" fill="#292F44"/>
<path d="M3022.01 1325.66L3000.85 1272.45L2993.93 1248.16L3139.26 1328.17L3043.18 1217.06L2967.74 1174.3L2925.61 1082.13L2877.6 1053.71L2862.31 1017.26L2681.18 869.303L2625.14 759.243L2552.25 615.493L2499.4 550.704L2443.95 426.796L2311.62 325.24L2238.46 220.768L2174.45 113.38L2017.68 0L2014.88 46.8909L2069.94 82.0388L2074.77 152.254L2081.3 181.166L2100.18 212.345L2070.92 209.916L2063.8 181.57L1976.27 80.9859L1940.15 70.4578H1939.82L1924.41 65.8416L1888.62 47.2148L1886.26 116.377L1903.51 106.82L1860.33 238.504L1916.9 324.754L1938.78 297.866L1960.2 315.116L1939.82 351.803L1929.83 442.102L1958.9 402.338L1966.61 344.757L2062.62 415.458L2065.17 503.814L2042.18 511.264L2070.85 521.792L2074.97 567.145L2095.54 545.521L2077.45 608.771L2090.51 603.507L2108.87 649.183L2102.34 700.447L2216.97 765.236L2202.86 715.754L2281.77 773.74L2239.37 687.085L2324.29 753.493L2361.65 750.092L2427.29 824.356L2487.71 934.011L2550.94 985.275L2607.51 1000.1L2781.91 1203.45L2783.73 1171.06L2821.36 1201.91L2878.12 1297.39L2998.43 1418.87L2924.95 1272.13L2973.55 1284.68L3022.01 1325.66ZM2343.62 692.592L2189.54 536.37L2156.35 454.25L2091.95 390.838L2053.41 310.743L2118.08 359.335L2096.07 299.162L2176.02 362.655L2238.79 450.768L2344.01 546.817L2343.62 692.592Z" fill="white"/>
<path d="M3814.78 1358.46L3775.59 1357.89L3667.62 1219.32L3634.24 1222.16L3532.74 1154.37L3478.46 1156.96L3339.53 1019.13L3362.65 960.169L3291.97 872.866L3223.72 862.014L3218.82 836.827L3184.85 825.57L3127.05 701.581L3086.42 585.852L3073.88 514.827L3000.66 476.359L2986.74 459.919L3037.95 423.394L3213.79 572.813L3370.49 853.51L3425.09 858.289L3538.81 1045.37L3622.81 1118.01L3676.04 1169.6L3814.78 1358.46Z" fill="white"/>
<path d="M2100.25 212.345L2070.98 209.916L2063.86 181.57L1976.27 81.0669L1940.15 70.5387L2017.81 0L2015.01 46.8909L2070.13 82.0387L2074.97 152.254L2081.37 181.166L2100.25 212.345Z" fill="#373D52"/>
<path d="M1933.03 578.967L1921.21 638.978L1892.4 583.017L1862.68 550.136L1849.29 573.622L1855.5 634.362L1802.92 585.77L1768.04 667.161L1764.84 635.576L1793.32 568.601L1793.71 528.918L1748.77 460.404L1756.41 399.988L1799.91 311.471L1860.59 375.935L1863.01 414.485L1893.91 454.006L1901.16 522.439L1933.03 578.967Z" fill="#EDF0F7"/>
<path d="M2291.63 1026.74L2200.38 966.892L2123.43 923.97L2086.14 896.677L2057.01 903.075L2008.74 858.128L1976.14 845.251L1973.14 824.195L1958.44 802.815L2000.64 715.512L2000.24 642.382L2040.48 597.758L2019.38 655.42L2034.73 682.47L2066.02 765.237L2086.92 774.065L2155.24 854.241L2159.95 883.396L2216.32 945.674L2291.63 1026.74Z" fill="#EDF0F7"/>
<path d="M2343.82 546.817L2343.62 692.592L2189.54 536.37L2156.35 454.25L2091.95 390.838L2053.41 310.743L2118.14 359.497L2095.8 299.162L2175.75 362.655L2238.59 450.768L2343.82 546.817Z" fill="#373D52"/>
<path d="M2679.94 1675.68L2310.37 1372.71L2203.45 1375.22L2015.66 1269.05L1637.21 974.989L1527.8 886.634C1526.17 890.44 1525.71 1048.61 1525.71 1048.61L1714.61 1293.43L1738.58 1439.2V1441.06L1702.59 1573.15L1867.45 1695.6L1861.51 1557.93L1819.84 1517.43L1749.88 1379.51L1851.12 1474.83L1752.69 1201.59L1742.43 1123.19L1936.95 1330.68L2029.96 1433.45L2209.59 1571.13L2156.75 1424.54L2249.89 1417.33L2299.99 1431.26L2526.05 1640.53L2466.88 1530.63L2679.94 1675.68Z" fill="white"/>
<path d="M3387.08 1495.57L3311.24 1424.38L3289.23 1410.78L3263.89 1362.91L3223.32 1354.81L3236.98 1398.63L3210.13 1387.05L3173.68 1407.13L3202.1 1370.12L3196.48 1337.16L3272.57 1306.22L3387.08 1495.57Z" fill="white"/>
<path d="M3651.35 1666.12L3561.28 1614.29L3509.55 1578.98L3559.39 1598.26L3489.23 1521.81L3586.3 1581.49L3651.35 1666.12Z" fill="white"/>
<path d="M3324.18 950.858L3293.87 1020.1V984.144L3324.18 950.858Z" fill="white"/>
<path d="M3082.11 815.935L3012.41 900.97L3032.66 841.203L3053.89 809.78L3082.11 815.935Z" fill="white"/>
<path d="M1219.5 1391.34L1137.33 1313.02L1030.34 1120.52L1191.41 1267.02L1079.98 1014.67L1171.55 1105.7L1128.84 994.101L1066.65 893.435L1109.76 923.967L1136.94 907.284L1155.68 915.544L1185.79 896.918L988.598 767.583L1004.73 1194.3L1086.84 1522.45L1255.29 1668.88L1219.5 1391.34Z" fill="white"/>
<path d="M1572.8 498.062L1564.51 517.094L1473.91 674.611L1341.71 787.263L1281.88 872.784L1376.33 959.925L1316.1 1032.65L1278.48 995.316L1251.44 856.425L1346.8 708.868L1572.8 498.062Z" fill="white"/>
</g>
<defs>
<clipPath id="clip0_30_2">
<rect width="4096" height="1850.99" fill="white"/>
</clipPath>
</defs>
</svg>
