<svg id="OBJECTS" xmlns="http://www.w3.org/2000/svg" xmlns:xlink="http://www.w3.org/1999/xlink" width="643.79" height="310.84" viewBox="0 0 643.79 310.84">
  <defs>
    <style>
      .cls-1 {
        fill: none;
      }

      .cls-2 {
        clip-path: url(#clip-path);
      }

      .cls-3 {
        fill: #373d52;
      }

      .cls-4 {
        fill: #292f44;
      }

      .cls-5 {
        fill: #fff;
      }

      .cls-6 {
        fill: #edf0f7;
      }
    </style>
    <clipPath id="clip-path">
      <rect class="cls-1" width="643.79" height="310.84"/>
    </clipPath>
  </defs>
  <g class="cls-2">
    <g>
      <path class="cls-3" d="M586.2,265h-2l-6.11-.07-16.83-17.12-5.21.36-15.82-8.37-8.46.32-21.65-17,3.61-7.29-11-10.77-10.63-1.34-.77-3.11-5.3-1.39-9-15.31-6.34-14.29-1.95-8.78-11.41-4.74-2.18-2L449,148.22l-20.86,19.34-14.37,6.14L398.84,191l8.7,13.58,28.24,18.28,2.38,4.5,7.49,3.51,6.57,11.39L464,247.52l15,13.72-22.66-9.91,1.08,3,3.3,6.57-7.57-5-7.57-1.55L457,272.48l-18.75-15-8.85-11.79-5.87-3.81-.28,4L396,220.76l-8.82-1.83-9.85-6.33-9.41-13.54-10.24-9.17-5.82.42-13.21-8.2,6.61,10.69-12.31-7.15,2.21,6.1-17.87-8,1-6.33-2.86-5.64-2,.64,2.81-7.8-3.2,2.67-.65-5.6-4.47-1.3,3.58-.92-.39-10.91-15-8.73L295,146.92l-4.53,4.91L292,140.68l3.18-4.53L291.82,134l-3.41,3.32-8.82-10.65,6.74-16.26-2.69,1.18.36-8.54-3.66,2.79-5.67,9.4-17.23,19.23-13.73,8.09-8.93,16.15h0l-1.3,2.35-14.12,19.45-20.61,13.91L189.44,205l14.71,10.76,23.56-9.05q8.56,5.44,17.11,10.91l59,36.31,29.28,13.11,16.66-.31,57.61,37.41,19.21,12.48,5.4-1.83,4.19,3.22,12.12,3.68,11.22,5.41,20.27-14.5,7.13-13,17.57,21.76,5.21-2,5.21,5.74,12-8.08,6.11-9,4.22.36,3.94-3.85,5.49,1.59,11,13.89,11.81,6.19,5.73,6.75,4.27-7.25,3.58,2.74,6.54.38,3.72,4.17,2.24.33.39-2.46,3.36,4.27,2.36-.74L666,314.24Zm-127-56.5,3.15-7.38,3.32-3.88L470,198ZM289.09,176.13l-4.49-6.9L280,165.17l-2.1,2.9,1,7.5-8.19-6-5.44,10.05-.5-3.91,4.44-8.26.06-4.9-7-8.46,1.18-7.46,6.79-10.93,9.46,8,.38,4.76,4.81,4.88,1.13,8.45,5,7Zm43.51,40.5-12-5.3L314.79,208l-4.53.79-7.52-5.55-5.09-1.59-.47-2.6-2.29-2.65,6.58-10.77-.06-9,6.27-5.51-3.29,7.12,2.4,3.34,4.87,10.22,3.26,1.09,10.64,9.9.74,3.6,8.79,7.69,11.74,10Zm170.45,2.13,4.72-4.11-4.72,8.55Zm2.71,54.36-3.43-1.68-3.95-5.91-6.32-1,2.12,5.41L490,268.51,484.32,271l4.42-4.57-.87-4.07,11.87-3.82,17.84,23.38Zm39,23.45-8.07-4.36,7.77,2.37-10.93-9.43,15.12,7.37L558.78,303Z"/>
      <path class="cls-4" d="M599.37,335.15l-53.29,16.73-33.51,4.66-49.85,9.77L401,382.05,340.78,371,320,379.27l-13.28-10.91L224.51,396,118.7,352.76,66.77,364.18l-20.22-7.84-17.48,4.49-15.7-7.62L-10.1,358.9-25.7,352l-17.44,3.13s-27.91-2.34-27.41-2.67c6-2.2,12.17-4.35,18.31-6.38l5.27-9.51,33-18.24L4.93,293.24l30.41-30.13,15.07.18,9.42-4.88,36.85-34.52h8.71L143.72,192l2.51,52.69L159,285.23l26.27,18.08L179.71,269l-12.81-9.66L150.22,235.6l25.11,18.09L158,222.53l14.28,11.23L165.57,220l-9.69-12.42,6.72,3.77,4.24-2.07,2.93,1,4.69-2.3,10.22-5,4.22,17.15,5.87,4.61,9.38-9,23.56-9.05c-.25.47-.33,19.95-.33,19.95l29.45,30.23,3.73,18,.05.23L255,291.44l25.66,15.16-.93-16.94-6.5-5-10.9-17.07,15.78,11.77-15.34-33.74-1.6-9.68,30.32,25.62L306,274.21l28,17.05-8.24-18.1,14.52-.89,7.81,1.72,35.24,25.84-9.22-13.56,33.21,17.88,19.21,12.48,5.4-1.83,4.19,3.22,12.12,3.68,11.22,5.41,20.27-14.5,7.13-13,17.57,21.76,5.21-2,5.21,5.74,12-8.08,6.11-9,4.22.36,3.94-3.85,5.49,1.59,11,13.89,11.81,6.19,5.73,6.75,4.27-7.25,3.58,2.74,6.54.38,3.72,4.17,2.24.33.39-2.46Z"/>
      <path class="cls-5" d="M460.68,260.93l-3.3-6.57-1.08-3L479,261.24l-15-13.72-11.76-5.27-6.57-11.39-7.49-3.51-2.38-4.5-28.24-18.28L398.84,191l-11.39-17.78-8.24-8-8.64-15.3L350,137.4l-11.43-12.9-10-13.23-24.43-14L303.7,103l8.6,4.34.76,8.67,1,3.57,2.94,3.85-4.57-.3-1.11-3.5-13.65-12.41L292,106l-.05,0-2.4-.56-5.59-2.3-.36,8.54,2.69-1.18-6.74,16.26,8.82,10.65,3.41-3.32,3.35,2.13L292,140.68l-1.56,11.15,4.53-4.91,1.21-7.11,15,8.73.39,10.91-3.58.92,4.47,1.3.65,5.6,3.2-2.67-2.81,7.8,2-.64,2.86,5.64-1,6.33,17.87,8-2.21-6.1,12.31,7.15-6.61-10.69,13.21,8.2,5.82-.42,10.24,9.17,9.41,13.54,9.85,6.33,8.82,1.83,27.25,25.08.28-4,5.87,3.81,8.85,11.79,18.75,15-11.45-18.12,7.57,1.55ZM354.93,182.76l-24-19.29-5.17-10.14-10-7.83-6-9.89,10.09,6-3.47-7.45L328.77,142l9.79,10.88L355,164.76Z"/>
      <polygon class="cls-5" points="584.25 264.98 578.14 264.91 561.31 247.79 556.1 248.15 540.28 239.78 531.82 240.09 510.17 223.08 513.78 215.79 502.75 205.02 492.12 203.68 491.36 200.57 486.05 199.18 477.05 183.87 470.71 169.58 468.76 160.81 457.35 156.06 455.17 154.03 463.16 149.52 490.57 167.96 515 202.63 523.5 203.22 541.23 226.31 554.32 235.29 562.63 241.66 584.25 264.98"/>
      <polygon class="cls-3" points="317 123.46 312.43 123.16 311.32 119.66 297.67 107.25 292.04 105.95 304.14 97.24 303.7 103.03 312.31 107.37 313.06 116.04 314.06 119.61 317 123.46"/>
      <polygon class="cls-6" points="290.93 168.73 289.08 176.13 284.6 169.22 279.97 165.17 277.87 168.07 278.84 175.57 270.65 169.57 265.21 179.62 264.71 175.71 269.15 167.45 269.21 162.55 262.21 154.09 263.39 146.63 270.18 135.7 279.64 143.66 280.02 148.42 284.83 153.3 285.96 161.75 290.93 168.73"/>
      <polygon class="cls-6" points="346.83 224.02 332.6 216.63 320.61 211.33 314.79 207.96 310.26 208.75 302.74 203.2 297.65 201.61 297.18 199 294.89 196.37 301.47 185.59 301.41 176.56 307.68 171.05 304.39 178.17 306.79 181.51 311.66 191.73 314.92 192.82 325.56 202.72 326.3 206.32 335.09 214.01 346.83 224.02"/>
      <polygon class="cls-3" points="354.96 164.76 354.93 182.76 330.91 163.47 325.74 153.33 315.7 145.5 309.69 135.61 319.78 141.63 316.31 134.18 328.77 142.02 338.56 152.9 354.96 164.76"/>
      <path class="cls-5" d="M407.36,304.15l-57.61-37.41-16.66.31-29.28-13.11-59-36.31q-8.56-5.46-17.11-10.91c-.25.47-.33,19.95-.33,19.95l29.45,30.23,3.73,18,.05.23L255,291.44l25.66,15.16-.93-16.94-6.5-5-10.9-17.07,15.78,11.77-15.34-33.74-1.6-9.68,30.32,25.62L306,274.21l28,17.05-8.24-18.1,14.52-.89,7.81,1.72,35.24,25.84-9.22-13.56Z"/>
      <polygon class="cls-5" points="517.58 281.91 505.76 273.12 502.33 271.44 498.38 265.53 492.06 264.53 494.19 269.94 489.99 268.51 484.32 270.99 488.74 266.42 487.87 262.35 499.74 258.52 517.58 281.91"/>
      <polygon class="cls-5" points="558.78 302.96 544.74 296.57 536.67 292.21 544.44 294.58 533.51 285.15 548.63 292.52 558.78 302.96"/>
      <polygon class="cls-5" points="507.77 214.65 503.05 223.2 503.05 218.76 507.77 214.65"/>
      <polygon class="cls-5" points="470.04 197.99 459.18 208.49 462.33 201.11 465.65 197.23 470.04 197.99"/>
      <polygon class="cls-5" points="179.71 269.03 166.9 259.37 150.22 235.6 175.33 253.69 157.96 222.53 172.24 233.76 165.57 219.98 155.88 207.56 162.6 211.33 166.84 209.26 169.76 210.29 174.46 207.99 143.72 192.02 146.23 244.71 159.02 285.23 185.29 303.31 179.71 269.03"/>
      <polygon class="cls-5" points="234.78 158.74 233.48 161.09 219.36 180.54 198.75 194.45 189.44 205.01 204.15 215.77 194.77 224.75 188.9 220.14 184.68 202.99 199.55 184.76 234.78 158.74"/>
    </g>
  </g>
</svg>
