<svg width="225" height="232" viewBox="0 0 225 232" fill="none" xmlns="http://www.w3.org/2000/svg">
<path d="M53.715 23.397C53.715 23.397 89.9032 0.415198 111.559 0.415527C133.215 0.415857 169.715 23.397 169.715 23.397C169.715 23.397 209.882 47.4157 217.559 61.4157C225.236 75.4157 224.715 121.397 224.715 121.397C224.715 121.397 224.387 173.118 215.059 184.916C207.692 194.233 176.215 213.416 176.215 213.416C156.041 227.918 123.215 231.897 112.715 231.897C102.215 231.897 67.4296 227.015 48.215 213.416C48.215 213.416 14.5615 190.3 9.55911 182.916C-0.940913 167.416 0.214973 121.397 0.214973 121.397C0.214973 121.397 -0.845788 70.0871 7.05909 59.4155C16.4105 46.7911 53.715 23.397 53.715 23.397Z" fill="url(#paint0_linear_15_44)"/>
<path d="M96.4968 62.8573C99.6486 57.2695 111.173 48.5215 111.173 48.5215C110.075 54.7921 107.846 67.4446 107.718 67.8896C107.591 68.3347 99.7714 82.8566 95.8773 90.062L97.2223 121.553L95.2651 148.943L95.6675 149.912L97.1792 152.427L106.187 165.852L95.9091 198.111L52.6986 216.254C50.1528 214.881 44.3315 210.733 38.6312 206.716C32.9309 202.698 25.3674 197.056 16.9909 190.195C8.61444 183.334 8.24973 180.854 7.93954 180.054L8.16357 180.033C8.16357 180.033 26.2755 178.168 31.1889 178.369C36.1023 178.57 45.3673 184.518 49.913 184.576C54.4587 184.635 60.9006 175.969 64.8719 175.418C68.8432 174.867 79.322 176.184 80.8484 175.418C82.3748 174.652 82.852 172.183 82.3748 167.582C81.8977 162.982 78.4061 153.641 78.4061 153.641C78.4061 153.641 75.9281 145.292 75.6586 140.005C75.3891 134.717 75.6586 133.001 76.2692 128.201C76.8797 123.4 79.8463 116.792 81.7642 114.056C83.3024 111.862 84.0751 110.883 85.661 108.874L85.7809 108.722C85.8012 108.679 85.8236 108.635 85.848 108.59L87.282 105.748C87.7545 104.164 89.3275 86.5299 89.9715 81.914C90.6156 77.298 93.345 68.4452 96.4968 62.8573Z" fill="#551DA8" fill-opacity="0.62"/>
<path d="M61.6675 198.916C55.6189 203.526 52.1675 215.916 52.1675 215.916C52.1675 215.916 77.6447 232.684 114.385 231.974C151.124 231.264 173.476 215.279 173.476 215.279C173.476 215.279 167.464 200.999 160.667 196.916C156.114 194.18 152.143 195.776 147.667 192.916C143.594 190.312 144.246 186.469 139.667 184.916C136.524 183.849 133.167 183.916 131.667 183.416C130.167 182.916 129.833 177.583 127.167 174.916C125.558 173.305 122.167 171.916 122.167 171.916L127.167 152.416H97.1675L102.667 171.916C102.667 171.916 96.1438 174.182 95.1675 176.916C94.1912 179.649 94.6675 181.916 92.6675 183.916C90.6675 185.916 85.1807 183.758 81.6675 186.416C78.8602 188.539 78.6675 192.416 76.6675 193.916C74.6675 195.416 66.5783 195.172 61.6675 198.916Z" fill="white"/>
<path d="M112.167 173.415V152.412H97.1731L102.167 171.915C102.167 171.915 97.7345 173.541 95.6674 175.915C93.3563 178.571 95.1979 182.695 92.025 184.219C89.0482 185.649 86.0502 184.114 82.6841 185.722C78.8146 187.571 78.8286 192.983 76.2889 194.089C72.2338 195.853 66.9896 195.235 62.1148 198.557C55.7731 202.879 52.1714 215.916 52.1714 215.916L54.9122 217.541L60.9028 220.577L67.0591 223.234C67.0591 223.234 65.1674 208.915 73.1674 207.915C81.1674 206.915 87.1674 208.415 87.1674 208.415C87.1674 208.415 85.9073 203.415 92.6674 196.915C96.8274 192.915 102.167 191.915 102.167 191.915C102.167 191.915 99.6674 186.415 103.667 180.915C106.109 177.558 112.167 173.415 112.167 173.415Z" fill="url(#paint1_linear_15_44)"/>
<path d="M94.6675 69.9155C97.805 57.3655 112.167 47.4155 112.167 47.4155V149.916H95.6675C95.6675 149.916 93.6675 145.416 93.1675 142.416C92.6675 139.416 91.1675 129.916 91.1675 129.916C91.1675 129.916 88.1675 131.916 85.6675 135.416C83.1675 138.916 81.6395 144.416 81.1675 144.416C80.6955 144.416 78.6675 136.416 78.6675 133.416C78.6675 130.416 79.3681 124.773 81.1675 119.916C82.9669 115.058 90.1675 107.416 90.1675 107.416C90.1675 107.416 90.1675 92.7878 91.1675 84.9155C91.6427 81.1744 91.53 82.4656 94.6675 69.9155Z" fill="url(#paint2_linear_15_44)"/>
<path d="M129.667 69.9155C126.327 56.5529 112.167 47.4155 112.167 47.4155V149.916H128.667C128.667 149.916 130.667 145.416 131.167 142.416C131.667 139.416 133.167 129.916 133.167 129.916C133.167 129.916 136.167 131.916 138.667 135.416C141.167 138.916 142.628 144.4 143.167 144.416C143.707 144.431 145.667 136.416 145.667 133.416C145.667 130.416 145.065 125.144 143.167 119.916C141.27 114.688 134.167 107.416 134.167 107.416C134.167 107.416 134.096 91.4155 133.167 84.9155C132.634 81.1822 133.008 83.2781 129.667 69.9155Z" fill="white"/>
<path d="M136.167 30.9165C90.6675 21.9165 65.185 16.7388 65.185 16.7388C65.185 16.7388 92.6508 -1.41642 114.651 0.583578C136.651 2.58358 174.229 23.3525 207.607 50.1044C207.607 50.1044 181.667 39.9165 136.167 30.9165Z" fill="#D45CEA"/>
<path d="M178.618 50.354C171.646 41.9685 135.585 6.104 135.585 6.104C135.585 6.104 159.581 15.7041 178.618 28.8645C197.655 42.0249 212.442 50.7933 218.844 64.0252C225.247 77.2571 224.621 126.583 224.621 126.583C224.621 126.583 215.045 107.149 208.888 93.4482C202.731 79.7472 185.589 58.7395 178.618 50.354Z" fill="#E37CF6"/>
<circle cx="158.167" cy="58.4155" r="18" fill="white"/>
<circle cx="171.167" cy="93.4155" r="4" fill="white"/>
<circle cx="85.1675" cy="93.4155" r="2" fill="white"/>
<circle cx="104.854" cy="59.293" r="2" fill="white"/>
<circle cx="61.1675" cy="116.416" r="1" fill="white"/>
<path d="M183.497 71.7396L184.774 65.4155L185.891 71.7396L192.167 72.9417L185.891 74.196L184.774 80.4155L183.497 74.196L177.167 72.9417L183.497 71.7396Z" fill="white"/>
<path d="M183.497 71.7396L184.774 65.4155L185.891 71.7396L192.167 72.9417L185.891 74.196L184.774 80.4155L183.497 74.196L177.167 72.9417L183.497 71.7396Z" fill="white"/>
<path d="M38.4148 80.3592L39.3467 71.4155L40.2786 80.3592L49.1675 81.2747L40.2786 82.331L39.3467 91.4155L38.4148 82.331L29.1675 81.2747L38.4148 80.3592Z" fill="white"/>
<circle cx="112.167" cy="92.4155" r="14" fill="white"/>
<circle cx="112.167" cy="92.4155" r="11" fill="url(#paint3_linear_15_44)"/>
<path d="M103.898 96.7836C107.481 103.937 116.354 102.09 116.354 102.09C116.354 102.09 109.269 103.041 105.687 95.888C102.104 88.7349 106.915 83.458 106.915 83.458C106.915 83.458 100.316 89.6305 103.898 96.7836Z" fill="white"/>
<defs>
<linearGradient id="paint0_linear_15_44" x1="66.0417" y1="231.897" x2="158.848" y2="0.415537" gradientUnits="userSpaceOnUse">
<stop stop-color="#7035F2"/>
<stop offset="1" stop-color="#C94BE8"/>
</linearGradient>
<linearGradient id="paint1_linear_15_44" x1="82.4175" y1="213.915" x2="82.4175" y2="152.916" gradientUnits="userSpaceOnUse">
<stop stop-color="white"/>
<stop offset="0.755" stop-color="#E3A3FF"/>
</linearGradient>
<linearGradient id="paint2_linear_15_44" x1="95.4175" y1="149.916" x2="95.4175" y2="47.4155" gradientUnits="userSpaceOnUse">
<stop stop-color="white"/>
<stop offset="1" stop-color="#D692FF"/>
</linearGradient>
<linearGradient id="paint3_linear_15_44" x1="114.32" y1="81.4155" x2="110.015" y2="103.416" gradientUnits="userSpaceOnUse">
<stop stop-color="#DB64F0"/>
<stop offset="1" stop-color="#7E2FCB"/>
</linearGradient>
</defs>
</svg>
