<svg width="49" height="48" viewBox="0 0 49 48" fill="none" xmlns="http://www.w3.org/2000/svg">
<path fill-rule="evenodd" clip-rule="evenodd" d="M22.3716 2.91357C21.552 2.91357 20.7177 3.18199 20.0616 3.76206C19.4056 4.34212 18.9666 5.25289 18.9666 6.30751V15.0499L12.8466 13.1863C12.7255 13.149 12.5982 13.1363 12.4722 13.149C12.3462 13.1616 12.2239 13.1992 12.1124 13.2598C12.0008 13.3203 11.9022 13.4026 11.8223 13.5018C11.7424 13.601 11.6827 13.7152 11.6466 13.8378L10.8816 16.4287L10.6266 16.353C8.38779 15.6771 6.00756 17.0053 5.33163 19.2772L4.6266 21.6712C3.95086 23.9446 5.21235 26.3717 7.4466 27.0499L7.70163 27.1408L6.93665 29.7166C6.89975 29.8389 6.88718 29.9675 6.89967 30.0947C6.91215 30.222 6.94944 30.3456 7.00939 30.4582C7.06934 30.5709 7.15077 30.6705 7.24898 30.7512C7.34719 30.8319 7.46024 30.8923 7.58163 30.9287L27.5166 36.959L34.7616 45.2469C34.8751 45.3754 35.0204 45.4711 35.1826 45.5241C35.3448 45.5771 35.518 45.5855 35.6845 45.5485C35.851 45.5115 36.0047 45.4303 36.1299 45.3134C36.255 45.1965 36.3471 45.048 36.3967 44.8832L44.5116 17.5499C44.5637 17.3836 44.5704 17.2062 44.531 17.0364C44.4916 16.8666 44.4076 16.7106 44.2878 16.585C44.168 16.4594 44.0169 16.3687 43.8504 16.3225C43.6839 16.2763 43.5081 16.2764 43.3416 16.3227L32.7816 19.2318L25.7616 17.0954V6.30751C25.7616 5.25289 25.3377 4.34212 24.6816 3.76206C24.0256 3.18199 23.1913 2.91357 22.3716 2.91357ZM22.3716 4.85297C22.7712 4.85297 23.1484 4.9882 23.4066 5.2166C23.6649 5.445 23.8416 5.74521 23.8416 6.30751V19.459C23.3722 19.3168 22.8836 19.2469 22.3716 19.2469C21.8595 19.2469 21.3562 19.3167 20.8866 19.459V6.30751C20.8866 5.74521 21.0633 5.445 21.3216 5.2166C21.58 4.9882 21.9721 4.85297 22.3716 4.85297ZM9.38163 18.1105C9.61039 18.1072 9.84171 18.1471 10.0716 18.2166C10.0766 18.2166 10.0815 18.2166 10.0865 18.2166L10.3265 18.2924L8.25655 25.2772L8.00153 25.2015C6.78156 24.8318 6.07726 23.5062 6.45655 22.2318L7.17655 19.8378C7.48553 18.8013 8.39081 18.1248 9.38163 18.1105ZM22.3716 21.1863C23.0215 21.1863 23.6264 21.3707 24.1266 21.7015C24.1266 21.7065 24.1266 21.7115 24.1266 21.7166C25.0094 22.2949 25.5816 23.2768 25.5816 24.4287C25.5816 26.2366 24.1615 27.6863 22.3716 27.6863C20.5818 27.6863 19.1466 26.2366 19.1466 24.4287C19.1466 23.2903 19.7171 22.2996 20.5866 21.7166C21.0968 21.3731 21.7078 21.1863 22.3716 21.1863ZM12.3216 24.853C12.3516 24.8515 12.3816 24.8515 12.4116 24.853C12.5084 24.8536 12.6045 24.8689 12.6967 24.8985L15.6967 25.8076C15.8272 25.835 15.9506 25.8896 16.0591 25.9678C16.1676 26.0461 16.2588 26.1463 16.3268 26.2621C16.3948 26.3778 16.4383 26.5067 16.4543 26.6404C16.4703 26.774 16.4586 26.9096 16.42 27.0385C16.3813 27.1673 16.3164 27.2866 16.2296 27.3888C16.1427 27.4909 16.0358 27.5737 15.9155 27.6318C15.7953 27.6899 15.6643 27.7221 15.5311 27.7263C15.3979 27.7304 15.2652 27.7066 15.1416 27.6561L12.1416 26.7621C11.9187 26.7059 11.7231 26.5708 11.5904 26.3813C11.4578 26.1918 11.3968 25.9605 11.4186 25.7294C11.4404 25.4984 11.5435 25.2829 11.7092 25.1221C11.8749 24.9613 12.0922 24.8657 12.3216 24.853ZM11.5866 27.3378C11.6166 27.3364 11.6467 27.3364 11.6767 27.3378C11.7734 27.3384 11.8695 27.3538 11.9616 27.3834L17.6316 29.0955C17.7528 29.1313 17.8658 29.1908 17.9642 29.2708C18.0625 29.3507 18.1444 29.4494 18.205 29.5612C18.2656 29.6731 18.3038 29.7959 18.3174 29.9227C18.331 30.0495 18.3198 30.1777 18.2843 30.3001C18.2488 30.4225 18.1899 30.5366 18.1107 30.636C18.0316 30.7353 17.9339 30.818 17.8231 30.8792C17.7124 30.9404 17.5908 30.9789 17.4652 30.9926C17.3397 31.0064 17.2128 30.995 17.0916 30.9591L11.4066 29.2319C11.1936 29.1675 11.0093 29.0305 10.8852 28.8441C10.7611 28.6578 10.7048 28.4337 10.7261 28.2102C10.7473 27.9866 10.8447 27.7774 11.0017 27.6184C11.1586 27.4593 11.3654 27.3601 11.5866 27.3378Z" fill="#2E7EC8"/>
</svg>
