<svg xmlns="http://www.w3.org/2000/svg" version="1.1" xmlns:xlink="http://www.w3.org/1999/xlink"
    xmlns:svgjs="http://svgjs.dev/svgjs" viewBox="0 0 512 512">
    <circle r="10.5" cx="553" cy="427" fill="hsl(231, 75%, 70%)" opacity="0.63"></circle>
    <circle r="13.5" cx="460" cy="40" fill="hsl(186, 75%, 70%)" opacity="0.22"></circle>
    <circle r="12" cx="406" cy="505" fill="hsl(122, 75%, 70%)" opacity="0.35"></circle>
    <circle r="25.5" cx="85" cy="513" fill="hsl(273, 75%, 70%)" opacity="0.29"></circle>
    <circle r="23" cx="174" cy="478" fill="hsl(276, 75%, 70%)" opacity="0.76"></circle>
    <circle r="17.5" cx="757" cy="631" fill="hsl(193, 75%, 70%)" opacity="0.41"></circle>
    <circle r="10" cx="743" cy="263" fill="hsl(210, 75%, 70%)" opacity="0.34"></circle>
    <circle r="10" cx="384" cy="551" fill="hsl(135, 75%, 70%)" opacity="0.13"></circle>
    <circle r="10.5" cx="436" cy="437" fill="hsl(117, 75%, 70%)" opacity="0.50"></circle>
    <circle r="18.5" cx="95" cy="119" fill="hsl(277, 75%, 70%)" opacity="0.11"></circle>
    <circle r="23.5" cx="166" cy="555" fill="hsl(276, 75%, 70%)" opacity="0.25"></circle>
    <circle r="16" cx="106" cy="725" fill="hsl(277, 75%, 70%)" opacity="0.10"></circle>
    <circle r="13" cx="774" cy="120" fill="hsl(176, 75%, 70%)" opacity="0.87"></circle>
    <circle r="15" cx="523" cy="243" fill="hsl(181, 75%, 70%)" opacity="0.88"></circle>
    <circle r="14.5" cx="321" cy="226" fill="hsl(186, 75%, 70%)" opacity="0.54"></circle>
    <circle r="19" cx="671" cy="529" fill="hsl(286, 75%, 70%)" opacity="0.55"></circle>
    <circle r="11" cx="546" cy="571" fill="hsl(214, 75%, 70%)" opacity="0.30"></circle>
    <circle r="18" cx="658" cy="399" fill="hsl(291, 75%, 70%)" opacity="0.21"></circle>
    <circle r="7" cx="475" cy="560" fill="hsl(130, 75%, 70%)" opacity="0.38"></circle>
    <circle r="10" cx="471" cy="614" fill="hsl(130, 75%, 70%)" opacity="0.52"></circle>
    <circle r="10.5" cx="480" cy="422" fill="hsl(140, 75%, 70%)" opacity="0.89"></circle>
    <circle r="12.5" cx="44" cy="146" fill="hsl(291, 75%, 70%)" opacity="0.36"></circle>
    <circle r="8" cx="388" cy="638" fill="hsl(128, 75%, 70%)" opacity="0.62"></circle>
    <circle r="17" cx="611" cy="432" fill="hsl(282, 75%, 70%)" opacity="0.62"></circle>
    <circle r="18" cx="179" cy="288" fill="hsl(273, 75%, 70%)" opacity="0.10"></circle>
    <circle r="9" cx="738" cy="45" fill="hsl(205, 75%, 70%)" opacity="0.37"></circle>
    <circle r="7.5" cx="521" cy="421" fill="hsl(181, 75%, 70%)" opacity="0.34"></circle>
    <circle r="10" cx="778" cy="195" fill="hsl(157, 75%, 70%)" opacity="0.50"></circle>
    <circle r="23.5" cx="655" cy="250" fill="hsl(291, 75%, 70%)" opacity="0.53"></circle>
    <circle r="12.5" cx="342" cy="398" fill="hsl(164, 75%, 70%)" opacity="0.98"></circle>
    <circle r="7.5" cx="731" cy="14" fill="hsl(217, 75%, 70%)" opacity="0.15"></circle>
    <circle r="8" cx="397" cy="601" fill="hsl(128, 75%, 70%)" opacity="0.25"></circle>
    <circle r="13" cx="349" cy="695" fill="hsl(164, 75%, 70%)" opacity="0.13"></circle>
    <circle r="15.5" cx="393" cy="43" fill="hsl(142, 75%, 70%)" opacity="0.34"></circle>
    <circle r="12" cx="735" cy="165" fill="hsl(225, 75%, 70%)" opacity="0.84"></circle>
    <circle r="13" cx="72" cy="220" fill="hsl(270, 75%, 70%)" opacity="0.11"></circle>
    <circle r="8.5" cx="436" cy="560" fill="hsl(117, 75%, 70%)" opacity="0.36"></circle>
    <circle r="18" cx="221" cy="156" fill="hsl(245, 75%, 70%)" opacity="0.93"></circle>
    <circle r="22" cx="591" cy="209" fill="hsl(272, 75%, 70%)" opacity="0.51"></circle>
    <circle r="21" cx="89" cy="335" fill="hsl(275, 75%, 70%)" opacity="0.29"></circle>
    <circle r="9.5" cx="523" cy="332" fill="hsl(181, 75%, 70%)" opacity="0.82"></circle>
    <circle r="24" cx="33" cy="736" fill="hsl(261, 75%, 70%)" opacity="0.20"></circle>
    <circle r="17.5" cx="216" cy="37" fill="hsl(164, 75%, 70%)" opacity="0.42"></circle>
    <circle r="20" cx="600" cy="143" fill="hsl(280, 75%, 70%)" opacity="0.58"></circle>
    <circle r="23.5" cx="259" cy="588" fill="hsl(238, 75%, 70%)" opacity="0.80"></circle>
    <circle r="11.5" cx="441" cy="710" fill="hsl(119, 75%, 70%)" opacity="0.34"></circle>
    <circle r="9.5" cx="680" cy="704" fill="hsl(278, 75%, 70%)" opacity="0.98"></circle>
    <circle r="16" cx="447" cy="258" fill="hsl(119, 75%, 70%)" opacity="0.20"></circle>
    <circle r="8.5" cx="508" cy="566" fill="hsl(166, 75%, 70%)" opacity="0.90"></circle>
    <circle r="16.5" cx="28" cy="238" fill="hsl(261, 75%, 70%)" opacity="0.99"></circle>
    <circle r="24" cx="271" cy="322" fill="hsl(228, 75%, 70%)" opacity="0.78"></circle>
    <circle r="21.5" cx="662" cy="620" fill="hsl(291, 75%, 70%)" opacity="0.74"></circle>
    <circle r="18" cx="581" cy="769" fill="hsl(260, 75%, 70%)" opacity="0.80"></circle>
    <circle r="18" cx="738" cy="566" fill="hsl(210, 75%, 70%)" opacity="0.57"></circle>
    <circle r="21.5" cx="54" cy="41" fill="hsl(228, 75%, 70%)" opacity="0.52"></circle>
    <circle r="19.5" cx="255" cy="230" fill="hsl(238, 75%, 70%)" opacity="0.71"></circle>
    <circle r="16.5" cx="25" cy="498" fill="hsl(257, 75%, 70%)" opacity="0.85"></circle>
    <circle r="18" cx="554" cy="88" fill="hsl(252, 75%, 70%)" opacity="0.23"></circle>
    <circle r="17" cx="755" cy="767" fill="hsl(193, 75%, 70%)" opacity="0.56"></circle>
    <circle r="18" cx="137" cy="663" fill="hsl(279, 75%, 70%)" opacity="0.21"></circle>
    <circle r="17.5" cx="350" cy="325" fill="hsl(164, 75%, 70%)" opacity="0.38"></circle>
    <circle r="14" cx="110" cy="206" fill="hsl(277, 75%, 70%)" opacity="0.73"></circle>
    <circle r="12" cx="70" cy="174" fill="hsl(283, 75%, 70%)" opacity="0.39"></circle>
    <circle r="20.5" cx="412" cy="150" fill="hsl(140, 75%, 70%)" opacity="0.91"></circle>
    <circle r="18" cx="298" cy="514" fill="hsl(208, 75%, 70%)" opacity="0.28"></circle>
    <circle r="11.5" cx="383" cy="739" fill="hsl(135, 75%, 70%)" opacity="0.48"></circle>
    <circle r="18.5" cx="234" cy="399" fill="hsl(253, 75%, 70%)" opacity="0.29"></circle>
    <circle r="21" cx="679" cy="163" fill="hsl(274, 75%, 70%)" opacity="0.30"></circle>
    <circle r="24" cx="47" cy="606" fill="hsl(264, 75%, 70%)" opacity="0.57"></circle>
    <circle r="14.5" cx="558" cy="712" fill="hsl(231, 75%, 70%)" opacity="0.74"></circle>
    <circle r="23" cx="161" cy="108" fill="hsl(249, 75%, 70%)" opacity="0.70"></circle>
    <circle r="11.5" cx="458" cy="326" fill="hsl(123, 75%, 70%)" opacity="0.44"></circle>
    <circle r="15" cx="379" cy="249" fill="hsl(135, 75%, 70%)" opacity="0.39"></circle>
    <circle r="17" cx="501" cy="754" fill="hsl(166, 75%, 70%)" opacity="0.13"></circle>
    <circle r="14" cx="564" cy="468" fill="hsl(246, 75%, 70%)" opacity="0.44"></circle>
    <circle r="20.5" cx="657" cy="768" fill="hsl(291, 75%, 70%)" opacity="0.67"></circle>
    <circle r="19" cx="716" cy="375" fill="hsl(242, 75%, 70%)" opacity="0.70"></circle>
    <circle r="21.5" cx="272" cy="762" fill="hsl(228, 75%, 70%)" opacity="0.93"></circle>
    <circle r="9.5" cx="782" cy="25" fill="hsl(193, 75%, 70%)" opacity="0.87"></circle>
    <circle r="9.5" cx="584" cy="16" fill="hsl(271, 75%, 70%)" opacity="0.95"></circle>
    <circle r="16.5" cx="311" cy="154" fill="hsl(188, 75%, 70%)" opacity="0.18"></circle>
    <circle r="16" cx="150" cy="172" fill="hsl(276, 75%, 70%)" opacity="0.63"></circle>
    <circle r="22" cx="501" cy="169" fill="hsl(179, 75%, 70%)" opacity="0.54"></circle>
    <circle r="14" cx="569" cy="611" fill="hsl(246, 75%, 70%)" opacity="0.91"></circle>
    <circle r="19.5" cx="296" cy="667" fill="hsl(208, 75%, 70%)" opacity="0.10"></circle>
    <circle r="8.5" cx="407" cy="676" fill="hsl(122, 75%, 70%)" opacity="0.81"></circle>
    <circle r="15.5" cx="131" cy="776" fill="hsl(279, 75%, 70%)" opacity="0.32"></circle>
    <circle r="13.5" cx="340" cy="99" fill="hsl(149, 75%, 70%)" opacity="0.59"></circle>
    <circle r="17.5" cx="250" cy="98" fill="hsl(197, 75%, 70%)" opacity="0.56"></circle>
    <circle r="10" cx="413" cy="353" fill="hsl(118, 75%, 70%)" opacity="0.75"></circle>
    <circle r="12" cx="17" cy="180" fill="hsl(269, 75%, 70%)" opacity="0.46"></circle>
    <circle r="19.5" cx="579" cy="375" fill="hsl(260, 75%, 70%)" opacity="0.30"></circle>
    <circle r="18.5" cx="643" cy="96" fill="hsl(271, 75%, 70%)" opacity="0.12"></circle>
    <circle r="13.5" cx="486" cy="666" fill="hsl(140, 75%, 70%)" opacity="0.78"></circle>
    <circle r="13" cx="596" cy="53" fill="hsl(269, 75%, 70%)" opacity="0.77"></circle>
    <circle r="26" cx="204" cy="719" fill="hsl(265, 75%, 70%)" opacity="0.58"></circle>
    <circle r="20.5" cx="160" cy="408" fill="hsl(278, 75%, 70%)" opacity="0.79"></circle>
</svg>